# MagicaVoxel @ Ephtracy

# group
o 

# material
mtllib Pig.mtl
usemtl palette

# normals
vn -1 0 0
vn 1 0 0
vn 0 0 1
vn 0 0 -1
vn 0 -1 0
vn 0 1 0

# texcoords
vt 0.0566406 0.5
vt 0.0917969 0.5
vt 0.224609 0.5
vt 0.392578 0.5
vt 0.533203 0.5
vt 0.615234 0.5
vt 0.638672 0.5
vt 0.681641 0.5
vt 0.689453 0.5
vt 0.806641 0.5
vt 0.927734 0.5
vt 0.958984 0.5
vt 0.994141 0.5

# verts
v -1.4 1.4 0.4
v -1.4 1.4 -0.4
v -1.4 1.6 0.3
v -1.4 1.6 0.1
v -1.4 1.6 -0.1
v -1.4 1.6 -0.3
v -1.4 1.8 0.3
v -1.4 1.8 0.1
v -1.4 1.8 -0.1
v -1.4 1.8 -0.3
v -1.4 1.9 0.4
v -1.4 1.9 -0.4
v -1.3 1.1 0.4
v -1.3 1.1 0.3
v -1.3 1.1 -0.3
v -1.3 1.1 -0.4
v -1.3 1.2 0.4
v -1.3 1.2 0.3
v -1.3 1.2 -0.3
v -1.3 1.2 -0.4
v -1.3 1.6 0.3
v -1.3 1.6 0.1
v -1.3 1.6 -0.1
v -1.3 1.6 -0.3
v -1.3 1.8 0.3
v -1.3 1.8 0.1
v -1.3 1.8 -0.1
v -1.3 1.8 -0.3
v -1.1 1.2 0.4
v -1.1 1.2 0.3
v -1.1 1.2 -0.3
v -1.1 1.2 -0.4
v -1.1 1.4 0.4
v -1.1 1.4 -0.4
v -1.1 2 0.7
v -1.1 2 0.3
v -1.1 2 -0.3
v -1.1 2 -0.7
v -1.1 2.1 0.6
v -1.1 2.1 0.4
v -1.1 2.1 -0.4
v -1.1 2.1 -0.6
v -1.1 2.3 0.6
v -1.1 2.3 0.4
v -1.1 2.3 -0.4
v -1.1 2.3 -0.6
v -1.1 2.4 0.7
v -1.1 2.4 0.3
v -1.1 2.4 -0.3
v -1.1 2.4 -0.7
v -1.1 2.5 0.8
v -1.1 2.5 -0.8
v -1.1 2.6 0.8
v -1.1 2.6 -0.8
v -1 2.6 0.6
v -1 2.6 -0.6
v -1 3 0.6
v -1 3 -0.6
v -1 3.4 0.6
v -1 3.4 -0.6
v -0.9 0.7 0.9
v -0.9 0.7 -0.9
v -0.9 1.1 0.4
v -0.9 1.1 0.3
v -0.9 1.1 -0.3
v -0.9 1.1 -0.4
v -0.9 1.2 0.3
v -0.9 1.2 -0.3
v -0.9 1.9 0.4
v -0.9 1.9 -0.4
v -0.9 2 0.7
v -0.9 2 0.3
v -0.9 2 -0.3
v -0.9 2 -0.7
v -0.9 2.4 0.7
v -0.9 2.4 0.3
v -0.9 2.4 -0.3
v -0.9 2.4 -0.7
v -0.9 2.5 0.9
v -0.9 2.5 0.8
v -0.9 2.5 0.6
v -0.9 2.5 -0.6
v -0.9 2.5 -0.8
v -0.9 2.5 -0.9
v -0.7 0 0.8
v -0.7 0 0.5
v -0.7 0 -0.5
v -0.7 0 -0.8
v -0.7 0.2 0.8
v -0.7 0.2 0.5
v -0.7 0.2 -0.5
v -0.7 0.2 -0.8
v -0.7 0.5 0.8
v -0.7 0.5 0.5
v -0.7 0.5 -0.5
v -0.7 0.5 -0.8
v -0.7 0.7 0.8
v -0.7 0.7 0.5
v -0.7 0.7 -0.5
v -0.7 0.7 -0.8
v -0.6 2.6 0.7
v -0.6 2.6 0.6
v -0.6 2.6 -0.6
v -0.6 2.6 -0.7
v -0.6 2.8 0.7
v -0.6 2.8 0.6
v -0.6 2.8 -0.6
v -0.6 2.8 -0.7
v 1.4 0 0.8
v 1.4 0 0.5
v 1.4 0 -0.5
v 1.4 0 -0.8
v 1.4 0.2 0.8
v 1.4 0.2 0.5
v 1.4 0.2 -0.5
v 1.4 0.2 -0.8
v 1.4 0.5 0.8
v 1.4 0.5 0.5
v 1.4 0.5 -0.5
v 1.4 0.5 -0.8
v 1.4 0.7 0.8
v 1.4 0.7 0.5
v 1.4 0.7 -0.5
v 1.4 0.7 -0.8
v -0.4 0 0.8
v -0.4 0 0.5
v -0.4 0 -0.5
v -0.4 0 -0.8
v -0.4 0.2 0.8
v -0.4 0.2 0.5
v -0.4 0.2 -0.5
v -0.4 0.2 -0.8
v -0.4 0.5 0.8
v -0.4 0.5 0.5
v -0.4 0.5 -0.5
v -0.4 0.5 -0.8
v -0.4 0.7 0.8
v -0.4 0.7 0.5
v -0.4 0.7 -0.5
v -0.4 0.7 -0.8
v -0.1 2.6 0.7
v -0.1 2.6 0.6
v -0.1 2.6 -0.6
v -0.1 2.6 -0.7
v -0.1 2.8 0.7
v -0.1 2.8 0.6
v -0.1 2.8 -0.6
v -0.1 2.8 -0.7
v 0.2 2.6 0.6
v 0.2 2.6 -0.6
v 0.2 3 0.6
v 0.2 3 -0.6
v 0.2 3.4 0.6
v 0.2 3.4 -0.6
v 0.3 2.5 0.8
v 0.3 2.5 -0.8
v 0.3 2.6 0.8
v 0.3 2.6 -0.8
v 1.7 0 0.8
v 1.7 0 0.5
v 1.7 0 -0.5
v 1.7 0 -0.8
v 1.7 0.2 0.8
v 1.7 0.2 0.5
v 1.7 0.2 -0.5
v 1.7 0.2 -0.8
v 1.7 0.5 0.8
v 1.7 0.5 0.5
v 1.7 0.5 -0.5
v 1.7 0.5 -0.8
v 1.7 0.7 0.8
v 1.7 0.7 0.5
v 1.7 0.7 -0.5
v 1.7 0.7 -0.8
v 2 0.7 0.9
v 2 0.7 -0.9
v 2 2.5 0.9
v 2 2.5 -0.9
v -0.9 0.7 0.9
v -0.9 2.5 0.9
v 0.6 1.9 0.9
v 0.6 2.5 0.9
v 0.9 1.2 0.9
v 0.9 1.9 0.9
v 1.6 1.2 0.9
v 1.6 2.5 0.9
v 2 0.7 0.9
v 2 2.5 0.9
v -1.1 2.5 0.8
v -1.1 2.6 0.8
v -0.9 2.5 0.8
v -0.7 0 0.8
v -0.7 0.2 0.8
v -0.7 0.5 0.8
v -0.7 0.7 0.8
v -0.4 0 0.8
v -0.4 0.2 0.8
v -0.4 0.5 0.8
v -0.4 0.7 0.8
v 0.3 2.5 0.8
v 0.3 2.6 0.8
v 1.4 0 0.8
v 1.4 0.2 0.8
v 1.4 0.5 0.8
v 1.4 0.7 0.8
v 1.7 0 0.8
v 1.7 0.2 0.8
v 1.7 0.5 0.8
v 1.7 0.7 0.8
v -1.1 2 0.7
v -1.1 2.4 0.7
v -0.9 2 0.7
v -0.9 2.4 0.7
v -0.6 2.6 0.7
v -0.6 2.8 0.7
v -0.1 2.6 0.7
v -0.1 2.8 0.7
v -1 2.6 0.6
v -1 3 0.6
v -1 3.4 0.6
v -0.6 2.6 0.6
v -0.6 2.8 0.6
v -0.1 2.6 0.6
v -0.1 2.8 0.6
v 0.2 2.6 0.6
v 0.2 3 0.6
v 0.2 3.4 0.6
v -1.4 1.4 0.4
v -1.4 1.9 0.4
v -1.3 1.1 0.4
v -1.3 1.2 0.4
v -1.2 1.1 0.4
v -1.2 1.2 0.4
v -1.2 1.4 0.4
v -1.2 1.9 0.4
v -1.1 1.2 0.4
v -1.1 1.4 0.4
v -0.9 1.1 0.4
v -0.9 1.9 0.4
v -1.4 1.6 0.1
v -1.4 1.8 0.1
v -1.3 1.6 0.1
v -1.3 1.8 0.1
v -1.4 1.6 -0.3
v -1.4 1.8 -0.3
v -1.3 1.1 -0.3
v -1.3 1.2 -0.3
v -1.3 1.6 -0.3
v -1.3 1.8 -0.3
v -1.2 1.1 -0.3
v -1.2 1.2 -0.3
v -1.1 1.2 -0.3
v -1.1 2 -0.3
v -1.1 2.4 -0.3
v -0.9 1.1 -0.3
v -0.9 1.2 -0.3
v -0.9 2 -0.3
v -0.9 2.4 -0.3
v -0.7 0 -0.5
v -0.7 0.2 -0.5
v -0.7 0.5 -0.5
v -0.7 0.7 -0.5
v -0.4 0 -0.5
v -0.4 0.2 -0.5
v -0.4 0.5 -0.5
v -0.4 0.7 -0.5
v 1.4 0 -0.5
v 1.4 0.2 -0.5
v 1.4 0.5 -0.5
v 1.4 0.7 -0.5
v 1.7 0 -0.5
v 1.7 0.2 -0.5
v 1.7 0.5 -0.5
v 1.7 0.7 -0.5
v -0.7 0 0.5
v -0.7 0.2 0.5
v -0.7 0.5 0.5
v -0.7 0.7 0.5
v -0.4 0 0.5
v -0.4 0.2 0.5
v -0.4 0.5 0.5
v -0.4 0.7 0.5
v 1.4 0 0.5
v 1.4 0.2 0.5
v 1.4 0.5 0.5
v 1.4 0.7 0.5
v 1.7 0 0.5
v 1.7 0.2 0.5
v 1.7 0.5 0.5
v 1.7 0.7 0.5
v -1.4 1.6 0.3
v -1.4 1.8 0.3
v -1.3 1.1 0.3
v -1.3 1.2 0.3
v -1.3 1.6 0.3
v -1.3 1.8 0.3
v -1.2 1.1 0.3
v -1.2 1.2 0.3
v -1.1 1.2 0.3
v -1.1 2 0.3
v -1.1 2.4 0.3
v -0.9 1.1 0.3
v -0.9 1.2 0.3
v -0.9 2 0.3
v -0.9 2.4 0.3
v -1.4 1.6 -0.1
v -1.4 1.8 -0.1
v -1.3 1.6 -0.1
v -1.3 1.8 -0.1
v -1.4 1.4 -0.4
v -1.4 1.9 -0.4
v -1.3 1.1 -0.4
v -1.3 1.2 -0.4
v -1.2 1.1 -0.4
v -1.2 1.2 -0.4
v -1.2 1.4 -0.4
v -1.2 1.9 -0.4
v -1.1 1.2 -0.4
v -1.1 1.4 -0.4
v -0.9 1.1 -0.4
v -0.9 1.9 -0.4
v -1 2.6 -0.6
v -1 3 -0.6
v -1 3.4 -0.6
v -0.9 3 -0.6
v -0.9 3.3 -0.6
v -0.6 2.6 -0.6
v -0.6 2.8 -0.6
v -0.1 2.6 -0.6
v -0.1 2.8 -0.6
v 0.1 3 -0.6
v 0.1 3.3 -0.6
v 0.2 2.6 -0.6
v 0.2 3 -0.6
v 0.2 3.4 -0.6
v -1.1 2 -0.7
v -1.1 2.4 -0.7
v -0.9 2 -0.7
v -0.9 2.4 -0.7
v -0.6 2.6 -0.7
v -0.6 2.8 -0.7
v -0.1 2.6 -0.7
v -0.1 2.8 -0.7
v -1.1 2.5 -0.8
v -1.1 2.6 -0.8
v -0.9 2.5 -0.8
v -0.7 0 -0.8
v -0.7 0.2 -0.8
v -0.7 0.5 -0.8
v -0.7 0.7 -0.8
v -0.4 0 -0.8
v -0.4 0.2 -0.8
v -0.4 0.5 -0.8
v -0.4 0.7 -0.8
v 0.3 2.5 -0.8
v 0.3 2.6 -0.8
v 1.4 0 -0.8
v 1.4 0.2 -0.8
v 1.4 0.5 -0.8
v 1.4 0.7 -0.8
v 1.7 0 -0.8
v 1.7 0.2 -0.8
v 1.7 0.5 -0.8
v 1.7 0.7 -0.8
v -0.9 0.7 -0.9
v -0.9 2.5 -0.9
v 0.6 1.9 -0.9
v 0.6 2.5 -0.9
v 0.9 1.2 -0.9
v 0.9 1.9 -0.9
v 1.6 1.2 -0.9
v 1.6 2.5 -0.9
v 2 0.7 -0.9
v 2 2.5 -0.9
v -0.7 0 0.8
v -0.4 0 0.8
v 1.4 0 0.8
v 1.7 0 0.8
v -0.7 0 0.5
v -0.4 0 0.5
v 1.4 0 0.5
v 1.7 0 0.5
v -0.7 0 -0.5
v -0.4 0 -0.5
v 1.4 0 -0.5
v 1.7 0 -0.5
v -0.7 0 -0.8
v -0.4 0 -0.8
v 1.4 0 -0.8
v 1.7 0 -0.8
v -0.9 0.7 0.9
v 2 0.7 0.9
v -0.7 0.7 0.8
v -0.4 0.7 0.8
v 1.4 0.7 0.8
v 1.7 0.7 0.8
v -0.7 0.7 0.5
v -0.4 0.7 0.5
v 1.4 0.7 0.5
v 1.7 0.7 0.5
v -0.7 0.7 -0.5
v -0.4 0.7 -0.5
v 1.4 0.7 -0.5
v 1.7 0.7 -0.5
v -0.7 0.7 -0.8
v -0.4 0.7 -0.8
v 1.4 0.7 -0.8
v 1.7 0.7 -0.8
v -0.9 0.7 -0.9
v 2 0.7 -0.9
v -1.3 1.1 0.4
v -1.2 1.1 0.4
v -0.9 1.1 0.4
v -1.3 1.1 0.3
v -1.2 1.1 0.3
v -0.9 1.1 0.3
v -1.3 1.1 -0.3
v -1.2 1.1 -0.3
v -0.9 1.1 -0.3
v -1.3 1.1 -0.4
v -1.2 1.1 -0.4
v -0.9 1.1 -0.4
v -1.1 1.2 0.3
v -0.9 1.2 0.3
v -1.1 1.2 -0.3
v -0.9 1.2 -0.3
v -1.4 1.4 0.4
v -1.2 1.4 0.4
v -1.1 1.4 0.4
v -1.4 1.4 -0.4
v -1.2 1.4 -0.4
v -1.1 1.4 -0.4
v -1.4 1.8 0.3
v -1.3 1.8 0.3
v -1.4 1.8 0.1
v -1.3 1.8 0.1
v -1.4 1.8 -0.1
v -1.3 1.8 -0.1
v -1.4 1.8 -0.3
v -1.3 1.8 -0.3
v -1.1 2 0.7
v -0.9 2 0.7
v -1.1 2 0.3
v -0.9 2 0.3
v -1.1 2 -0.3
v -0.9 2 -0.3
v -1.1 2 -0.7
v -0.9 2 -0.7
v -1.1 2.5 0.8
v -0.9 2.5 0.8
v -1 2.5 0.6
v -0.9 2.5 0.6
v -1 2.5 -0.6
v -0.9 2.5 -0.6
v -1.1 2.5 -0.8
v -0.9 2.5 -0.8
v -1.3 1.2 0.4
v -1.2 1.2 0.4
v -1.1 1.2 0.4
v -1.3 1.2 0.3
v -1.2 1.2 0.3
v -1.1 1.2 0.3
v -1.3 1.2 -0.3
v -1.2 1.2 -0.3
v -1.1 1.2 -0.3
v -1.3 1.2 -0.4
v -1.2 1.2 -0.4
v -1.1 1.2 -0.4
v -1.4 1.6 0.3
v -1.3 1.6 0.3
v -1.4 1.6 0.1
v -1.3 1.6 0.1
v -1.4 1.6 -0.1
v -1.3 1.6 -0.1
v -1.4 1.6 -0.3
v -1.3 1.6 -0.3
v -1.4 1.9 0.4
v -1.2 1.9 0.4
v -0.9 1.9 0.4
v -1.4 1.9 -0.4
v -1.2 1.9 -0.4
v -0.9 1.9 -0.4
v -1.1 2.4 0.7
v -0.9 2.4 0.7
v -1.1 2.4 0.3
v -0.9 2.4 0.3
v -1.1 2.4 -0.3
v -0.9 2.4 -0.3
v -1.1 2.4 -0.7
v -0.9 2.4 -0.7
v -0.9 2.5 0.9
v 0.6 2.5 0.9
v 1.6 2.5 0.9
v 2 2.5 0.9
v -0.9 2.5 0.8
v 0.3 2.5 0.8
v -0.9 2.5 -0.8
v 0.3 2.5 -0.8
v -0.9 2.5 -0.9
v 0.6 2.5 -0.9
v 1.6 2.5 -0.9
v 2 2.5 -0.9
v -1.1 2.6 0.8
v 0.3 2.6 0.8
v -0.6 2.6 0.7
v -0.1 2.6 0.7
v -1 2.6 0.6
v -0.6 2.6 0.6
v -0.1 2.6 0.6
v 0.2 2.6 0.6
v -1 2.6 -0.6
v -0.6 2.6 -0.6
v -0.1 2.6 -0.6
v 0.2 2.6 -0.6
v -0.6 2.6 -0.7
v -0.1 2.6 -0.7
v -1.1 2.6 -0.8
v 0.3 2.6 -0.8
v -0.6 2.8 0.7
v -0.1 2.8 0.7
v -0.6 2.8 0.6
v -0.1 2.8 0.6
v -0.6 2.8 -0.6
v -0.1 2.8 -0.6
v -0.6 2.8 -0.7
v -0.1 2.8 -0.7
v -1 3.4 0.6
v 0.2 3.4 0.6
v -1 3.4 -0.6
v 0.2 3.4 -0.6

# faces
f 3/1/1 2/1/1 1/1/1
f 4/1/1 2/1/1 3/1/1
f 5/1/1 2/1/1 4/1/1
f 6/1/1 2/1/1 5/1/1
f 7/1/1 3/1/1 1/1/1
f 8/1/1 5/1/1 4/1/1
f 9/1/1 5/1/1 8/1/1
f 10/1/1 2/1/1 6/1/1
f 11/1/1 9/1/1 8/1/1
f 11/1/1 10/1/1 9/1/1
f 11/1/1 7/1/1 1/1/1
f 11/1/1 8/1/1 7/1/1
f 12/1/1 2/1/1 10/1/1
f 12/1/1 10/1/1 11/1/1
f 17/12/1 14/12/1 13/12/1
f 18/12/1 14/12/1 17/12/1
f 19/12/1 16/12/1 15/12/1
f 20/12/1 16/12/1 19/12/1
f 25/1/1 22/1/1 21/1/1
f 26/1/1 22/1/1 25/1/1
f 27/1/1 24/1/1 23/1/1
f 28/1/1 24/1/1 27/1/1
f 33/3/1 30/3/1 29/3/1
f 33/3/1 32/3/1 31/3/1
f 33/3/1 31/3/1 30/3/1
f 34/3/1 32/3/1 33/3/1
f 39/12/1 36/12/1 35/12/1
f 40/12/1 36/12/1 39/12/1
f 41/12/1 38/12/1 37/12/1
f 42/12/1 38/12/1 41/12/1
f 43/12/1 39/12/1 35/12/1
f 43/13/1 40/13/1 39/13/1
f 44/12/1 36/12/1 40/12/1
f 44/13/1 40/13/1 43/13/1
f 45/13/1 42/13/1 41/13/1
f 45/12/1 41/12/1 37/12/1
f 46/12/1 38/12/1 42/12/1
f 46/13/1 42/13/1 45/13/1
f 47/12/1 43/12/1 35/12/1
f 47/12/1 44/12/1 43/12/1
f 48/12/1 36/12/1 44/12/1
f 48/12/1 44/12/1 47/12/1
f 49/12/1 45/12/1 37/12/1
f 49/12/1 46/12/1 45/12/1
f 50/12/1 38/12/1 46/12/1
f 50/12/1 46/12/1 49/12/1
f 53/10/1 52/10/1 51/10/1
f 54/10/1 52/10/1 53/10/1
f 57/6/1 56/6/1 55/6/1
f 58/6/1 56/6/1 57/6/1
f 59/10/1 58/10/1 57/10/1
f 60/10/1 58/10/1 59/10/1
f 63/3/1 62/3/1 61/3/1
f 64/3/1 62/3/1 63/3/1
f 65/3/1 62/3/1 64/3/1
f 66/3/1 62/3/1 65/3/1
f 67/3/1 65/3/1 64/3/1
f 68/3/1 65/3/1 67/3/1
f 69/3/1 63/3/1 61/3/1
f 70/3/1 62/3/1 66/3/1
f 71/3/1 69/3/1 61/3/1
f 71/3/1 70/3/1 69/3/1
f 72/3/1 70/3/1 71/3/1
f 73/3/1 70/3/1 72/3/1
f 74/3/1 62/3/1 70/3/1
f 74/3/1 70/3/1 73/3/1
f 75/3/1 71/3/1 61/3/1
f 76/3/1 73/3/1 72/3/1
f 77/3/1 73/3/1 76/3/1
f 78/3/1 62/3/1 74/3/1
f 79/3/1 75/3/1 61/3/1
f 79/3/1 78/3/1 77/3/1
f 79/3/1 77/3/1 76/3/1
f 79/3/1 76/3/1 75/3/1
f 80/3/1 78/3/1 79/3/1
f 81/3/1 78/3/1 80/3/1
f 82/3/1 78/3/1 81/3/1
f 83/3/1 62/3/1 78/3/1
f 83/3/1 78/3/1 82/3/1
f 84/3/1 62/3/1 83/3/1
f 89/5/1 86/5/1 85/5/1
f 90/5/1 86/5/1 89/5/1
f 91/5/1 88/5/1 87/5/1
f 92/5/1 88/5/1 91/5/1
f 93/4/1 90/4/1 89/4/1
f 94/4/1 90/4/1 93/4/1
f 95/4/1 92/4/1 91/4/1
f 96/4/1 92/4/1 95/4/1
f 97/3/1 94/3/1 93/3/1
f 98/3/1 94/3/1 97/3/1
f 99/3/1 96/3/1 95/3/1
f 100/3/1 96/3/1 99/3/1
f 105/3/1 102/3/1 101/3/1
f 106/3/1 102/3/1 105/3/1
f 107/3/1 104/3/1 103/3/1
f 108/3/1 104/3/1 107/3/1
f 113/5/1 110/5/1 109/5/1
f 114/5/1 110/5/1 113/5/1
f 115/5/1 112/5/1 111/5/1
f 116/5/1 112/5/1 115/5/1
f 117/4/1 114/4/1 113/4/1
f 118/4/1 114/4/1 117/4/1
f 119/4/1 116/4/1 115/4/1
f 120/4/1 116/4/1 119/4/1
f 121/3/1 118/3/1 117/3/1
f 122/3/1 118/3/1 121/3/1
f 123/3/1 120/3/1 119/3/1
f 124/3/1 120/3/1 123/3/1
f 125/5/2 126/5/2 129/5/2
f 129/5/2 126/5/2 130/5/2
f 127/5/2 128/5/2 131/5/2
f 131/5/2 128/5/2 132/5/2
f 129/4/2 130/4/2 133/4/2
f 133/4/2 130/4/2 134/4/2
f 131/4/2 132/4/2 135/4/2
f 135/4/2 132/4/2 136/4/2
f 133/3/2 134/3/2 137/3/2
f 137/3/2 134/3/2 138/3/2
f 135/3/2 136/3/2 139/3/2
f 139/3/2 136/3/2 140/3/2
f 141/3/2 142/3/2 145/3/2
f 145/3/2 142/3/2 146/3/2
f 143/3/2 144/3/2 147/3/2
f 147/3/2 144/3/2 148/3/2
f 149/6/2 150/6/2 151/6/2
f 151/6/2 150/6/2 152/6/2
f 151/10/2 152/10/2 153/10/2
f 153/10/2 152/10/2 154/10/2
f 155/10/2 156/10/2 157/10/2
f 157/10/2 156/10/2 158/10/2
f 159/5/2 160/5/2 163/5/2
f 163/5/2 160/5/2 164/5/2
f 161/5/2 162/5/2 165/5/2
f 165/5/2 162/5/2 166/5/2
f 163/4/2 164/4/2 167/4/2
f 167/4/2 164/4/2 168/4/2
f 165/4/2 166/4/2 169/4/2
f 169/4/2 166/4/2 170/4/2
f 167/3/2 168/3/2 171/3/2
f 171/3/2 168/3/2 172/3/2
f 169/3/2 170/3/2 173/3/2
f 173/3/2 170/3/2 174/3/2
f 175/3/2 176/3/2 177/3/2
f 177/3/2 176/3/2 178/3/2
f 181/3/3 180/3/3 179/3/3
f 182/3/3 180/3/3 181/3/3
f 183/3/3 181/3/3 179/3/3
f 184/1/3 182/1/3 181/1/3
f 184/3/3 181/3/3 183/3/3
f 185/3/3 183/3/3 179/3/3
f 185/1/3 184/1/3 183/1/3
f 186/1/3 182/1/3 184/1/3
f 186/1/3 184/1/3 185/1/3
f 187/3/3 185/3/3 179/3/3
f 187/3/3 186/3/3 185/3/3
f 188/3/3 186/3/3 187/3/3
f 191/10/3 190/10/3 189/10/3
f 196/5/3 193/5/3 192/5/3
f 197/4/3 194/4/3 193/4/3
f 197/5/3 193/5/3 196/5/3
f 198/3/3 195/3/3 194/3/3
f 198/4/3 194/4/3 197/4/3
f 199/3/3 195/3/3 198/3/3
f 200/10/3 190/10/3 191/10/3
f 201/10/3 190/10/3 200/10/3
f 206/5/3 203/5/3 202/5/3
f 207/4/3 204/4/3 203/4/3
f 207/5/3 203/5/3 206/5/3
f 208/3/3 205/3/3 204/3/3
f 208/4/3 204/4/3 207/4/3
f 209/3/3 205/3/3 208/3/3
f 212/12/3 211/12/3 210/12/3
f 213/12/3 211/12/3 212/12/3
f 216/3/3 215/3/3 214/3/3
f 217/3/3 215/3/3 216/3/3
f 221/6/3 219/6/3 218/6/3
f 222/6/3 219/6/3 221/6/3
f 224/6/3 219/6/3 222/6/3
f 225/6/3 224/6/3 223/6/3
f 226/10/3 220/10/3 219/10/3
f 226/6/3 224/6/3 225/6/3
f 226/6/3 219/6/3 224/6/3
f 227/10/3 220/10/3 226/10/3
f 232/12/3 231/12/3 230/12/3
f 233/12/3 231/12/3 232/12/3
f 234/1/3 229/1/3 228/1/3
f 235/1/3 229/1/3 234/1/3
f 236/3/3 233/3/3 232/3/3
f 237/3/3 235/3/3 234/3/3
f 238/3/3 236/3/3 232/3/3
f 238/3/3 237/3/3 236/3/3
f 239/3/3 235/3/3 237/3/3
f 239/3/3 237/3/3 238/3/3
f 242/1/3 241/1/3 240/1/3
f 243/1/3 241/1/3 242/1/3
f 248/1/3 245/1/3 244/1/3
f 249/1/3 245/1/3 248/1/3
f 250/12/3 247/12/3 246/12/3
f 251/12/3 247/12/3 250/12/3
f 252/3/3 251/3/3 250/3/3
f 255/3/3 252/3/3 250/3/3
f 256/3/3 252/3/3 255/3/3
f 257/12/3 254/12/3 253/12/3
f 258/12/3 254/12/3 257/12/3
f 263/5/3 260/5/3 259/5/3
f 264/4/3 261/4/3 260/4/3
f 264/5/3 260/5/3 263/5/3
f 265/3/3 262/3/3 261/3/3
f 265/4/3 261/4/3 264/4/3
f 266/3/3 262/3/3 265/3/3
f 271/5/3 268/5/3 267/5/3
f 272/4/3 269/4/3 268/4/3
f 272/5/3 268/5/3 271/5/3
f 273/3/3 270/3/3 269/3/3
f 273/4/3 269/4/3 272/4/3
f 274/3/3 270/3/3 273/3/3
f 275/5/4 276/5/4 279/5/4
f 276/4/4 277/4/4 280/4/4
f 279/5/4 276/5/4 280/5/4
f 277/3/4 278/3/4 281/3/4
f 280/4/4 277/4/4 281/4/4
f 281/3/4 278/3/4 282/3/4
f 283/5/4 284/5/4 287/5/4
f 284/4/4 285/4/4 288/4/4
f 287/5/4 284/5/4 288/5/4
f 285/3/4 286/3/4 289/3/4
f 288/4/4 285/4/4 289/4/4
f 289/3/4 286/3/4 290/3/4
f 291/1/4 292/1/4 295/1/4
f 295/1/4 292/1/4 296/1/4
f 293/12/4 294/12/4 297/12/4
f 297/12/4 294/12/4 298/12/4
f 297/3/4 298/3/4 299/3/4
f 297/3/4 299/3/4 302/3/4
f 302/3/4 299/3/4 303/3/4
f 300/12/4 301/12/4 304/12/4
f 304/12/4 301/12/4 305/12/4
f 306/1/4 307/1/4 308/1/4
f 308/1/4 307/1/4 309/1/4
f 312/12/4 313/12/4 314/12/4
f 314/12/4 313/12/4 315/12/4
f 310/1/4 311/1/4 316/1/4
f 316/1/4 311/1/4 317/1/4
f 314/3/4 315/3/4 318/3/4
f 316/3/4 317/3/4 319/3/4
f 314/3/4 318/3/4 320/3/4
f 318/3/4 319/3/4 320/3/4
f 319/3/4 317/3/4 321/3/4
f 320/3/4 319/3/4 321/3/4
f 322/6/4 323/6/4 325/6/4
f 323/10/4 324/10/4 325/10/4
f 325/10/4 324/10/4 326/10/4
f 322/6/4 325/6/4 327/6/4
f 327/6/4 325/6/4 328/6/4
f 328/6/4 325/6/4 330/6/4
f 325/11/4 326/11/4 331/11/4
f 329/6/4 330/6/4 331/6/4
f 330/6/4 325/6/4 331/6/4
f 326/10/4 324/10/4 332/10/4
f 331/11/4 326/11/4 332/11/4
f 329/6/4 331/6/4 333/6/4
f 331/10/4 332/10/4 334/10/4
f 333/6/4 331/6/4 334/6/4
f 332/10/4 324/10/4 335/10/4
f 334/10/4 332/10/4 335/10/4
f 336/12/4 337/12/4 338/12/4
f 338/12/4 337/12/4 339/12/4
f 340/3/4 341/3/4 342/3/4
f 342/3/4 341/3/4 343/3/4
f 344/10/4 345/10/4 346/10/4
f 347/5/4 348/5/4 351/5/4
f 348/4/4 349/4/4 352/4/4
f 351/5/4 348/5/4 352/5/4
f 349/3/4 350/3/4 353/3/4
f 352/4/4 349/4/4 353/4/4
f 353/3/4 350/3/4 354/3/4
f 346/10/4 345/10/4 355/10/4
f 355/10/4 345/10/4 356/10/4
f 357/5/4 358/5/4 361/5/4
f 358/4/4 359/4/4 362/4/4
f 361/5/4 358/5/4 362/5/4
f 359/3/4 360/3/4 363/3/4
f 362/4/4 359/4/4 363/4/4
f 363/3/4 360/3/4 364/3/4
f 365/3/4 366/3/4 367/3/4
f 367/3/4 366/3/4 368/3/4
f 365/3/4 367/3/4 369/3/4
f 367/1/4 368/1/4 370/1/4
f 369/3/4 367/3/4 370/3/4
f 365/3/4 369/3/4 371/3/4
f 369/1/4 370/1/4 371/1/4
f 370/1/4 368/1/4 372/1/4
f 371/1/4 370/1/4 372/1/4
f 365/3/4 371/3/4 373/3/4
f 371/3/4 372/3/4 373/3/4
f 373/3/4 372/3/4 374/3/4
f 379/5/5 376/5/5 375/5/5
f 380/5/5 376/5/5 379/5/5
f 381/5/5 378/5/5 377/5/5
f 382/5/5 378/5/5 381/5/5
f 387/5/5 384/5/5 383/5/5
f 388/5/5 384/5/5 387/5/5
f 389/5/5 386/5/5 385/5/5
f 390/5/5 386/5/5 389/5/5
f 393/3/5 392/3/5 391/3/5
f 394/3/5 392/3/5 393/3/5
f 395/3/5 392/3/5 394/3/5
f 396/3/5 392/3/5 395/3/5
f 397/3/5 393/3/5 391/3/5
f 398/3/5 395/3/5 394/3/5
f 399/3/5 395/3/5 398/3/5
f 400/3/5 392/3/5 396/3/5
f 401/3/5 399/3/5 398/3/5
f 401/3/5 400/3/5 399/3/5
f 401/3/5 397/3/5 391/3/5
f 401/3/5 398/3/5 397/3/5
f 402/3/5 400/3/5 401/3/5
f 403/3/5 400/3/5 402/3/5
f 404/3/5 392/3/5 400/3/5
f 404/3/5 400/3/5 403/3/5
f 405/3/5 401/3/5 391/3/5
f 406/3/5 403/3/5 402/3/5
f 407/3/5 403/3/5 406/3/5
f 408/3/5 392/3/5 404/3/5
f 409/3/5 405/3/5 391/3/5
f 409/3/5 408/3/5 407/3/5
f 409/3/5 407/3/5 406/3/5
f 409/3/5 406/3/5 405/3/5
f 410/3/5 392/3/5 408/3/5
f 410/3/5 408/3/5 409/3/5
f 414/12/5 412/12/5 411/12/5
f 415/3/5 413/3/5 412/3/5
f 415/12/5 412/12/5 414/12/5
f 416/3/5 413/3/5 415/3/5
f 420/12/5 418/12/5 417/12/5
f 421/3/5 419/3/5 418/3/5
f 421/12/5 418/12/5 420/12/5
f 422/3/5 419/3/5 421/3/5
f 425/3/5 424/3/5 423/3/5
f 426/3/5 424/3/5 425/3/5
f 430/1/5 428/1/5 427/1/5
f 431/3/5 429/3/5 428/3/5
f 431/1/5 428/1/5 430/1/5
f 432/3/5 429/3/5 431/3/5
f 435/1/5 434/1/5 433/1/5
f 436/1/5 434/1/5 435/1/5
f 439/1/5 438/1/5 437/1/5
f 440/1/5 438/1/5 439/1/5
f 443/12/5 442/12/5 441/12/5
f 444/12/5 442/12/5 443/12/5
f 447/12/5 446/12/5 445/12/5
f 448/12/5 446/12/5 447/12/5
f 451/10/5 450/10/5 449/10/5
f 452/10/5 450/10/5 451/10/5
f 453/10/5 451/10/5 449/10/5
f 453/11/5 452/11/5 451/11/5
f 454/11/5 452/11/5 453/11/5
f 455/10/5 453/10/5 449/10/5
f 455/10/5 454/10/5 453/10/5
f 456/10/5 454/10/5 455/10/5
f 457/12/6 458/12/6 460/12/6
f 458/3/6 459/3/6 461/3/6
f 460/12/6 458/12/6 461/12/6
f 461/3/6 459/3/6 462/3/6
f 463/12/6 464/12/6 466/12/6
f 464/3/6 465/3/6 467/3/6
f 466/12/6 464/12/6 467/12/6
f 467/3/6 465/3/6 468/3/6
f 469/1/6 470/1/6 471/1/6
f 471/1/6 470/1/6 472/1/6
f 473/1/6 474/1/6 475/1/6
f 475/1/6 474/1/6 476/1/6
f 477/1/6 478/1/6 480/1/6
f 478/3/6 479/3/6 481/3/6
f 480/1/6 478/1/6 481/1/6
f 481/3/6 479/3/6 482/3/6
f 483/12/6 484/12/6 485/12/6
f 485/12/6 484/12/6 486/12/6
f 487/12/6 488/12/6 489/12/6
f 489/12/6 488/12/6 490/12/6
f 491/3/6 492/3/6 495/3/6
f 495/3/6 492/3/6 496/3/6
f 496/3/6 492/3/6 498/3/6
f 497/3/6 498/3/6 499/3/6
f 492/1/6 493/1/6 500/1/6
f 499/3/6 498/3/6 500/3/6
f 498/3/6 492/3/6 500/3/6
f 493/3/6 494/3/6 501/3/6
f 500/1/6 493/1/6 501/1/6
f 501/3/6 494/3/6 502/3/6
f 503/10/6 504/10/6 505/10/6
f 505/10/6 504/10/6 506/10/6
f 503/10/6 505/10/6 507/10/6
f 507/10/6 505/10/6 508/10/6
f 506/10/6 504/10/6 509/10/6
f 509/10/6 504/10/6 510/10/6
f 503/10/6 507/10/6 511/10/6
f 510/10/6 504/10/6 514/10/6
f 511/10/6 512/10/6 515/10/6
f 513/10/6 514/10/6 516/10/6
f 511/10/6 515/10/6 517/10/6
f 515/10/6 516/10/6 517/10/6
f 503/10/6 511/10/6 517/10/6
f 516/10/6 514/10/6 518/10/6
f 517/10/6 516/10/6 518/10/6
f 514/10/6 504/10/6 518/10/6
f 519/3/6 520/3/6 521/3/6
f 521/3/6 520/3/6 522/3/6
f 523/3/6 524/3/6 525/3/6
f 525/3/6 524/3/6 526/3/6
f 527/10/6 528/10/6 529/10/6
f 529/10/6 528/10/6 530/10/6
