# MagicaVoxel @ Ephtracy

# group
o 

# material
mtllib Chick.mtl
usemtl palette

# normals
vn -1 0 0
vn 1 0 0
vn 0 0 1
vn 0 0 -1
vn 0 -1 0
vn 0 1 0

# texcoords
vt 0.0917969 0.5
vt 0.130859 0.5
vt 0.958984 0.5
vt 0.994141 0.5

# verts
v -2 2.2 0.3
v -2 2.2 -0.3
v -2 2.7 0.3
v -2 2.7 -0.3
v -1.7 1.8 0.3
v -1.7 1.8 -0.3
v -1.7 2.2 0.3
v -1.7 2.2 -0.3
v -1.3 0.9 0.7
v -1.3 0.9 -0.8
v -1.3 1.8 0.3
v -1.3 1.8 -0.3
v -1.3 2.2 0.3
v -1.3 2.2 -0.3
v -1.3 2.7 0.3
v -1.3 2.7 -0.3
v -1.3 3.5 0.7
v -1.3 3.5 -0.8
v -0.9 0 0.7
v -0.9 0 0.5
v -0.9 0 0.3
v -0.9 0 0.0999999
v -0.9 0 -0.1
v -0.9 0 -0.3
v -0.9 0 -0.5
v -0.9 0 -0.7
v -0.9 0.2 0.7
v -0.9 0.2 0.5
v -0.9 0.2 0.3
v -0.9 0.2 0.0999999
v -0.9 0.2 -0.1
v -0.9 0.2 -0.3
v -0.9 0.2 -0.5
v -0.9 0.2 -0.7
v -0.9 3.5 0.3
v -0.9 3.5 -0.3
v -0.9 4 0.3
v -0.9 4 -0.3
v -0.6 1.1 1.2
v -0.6 1.1 0.7
v -0.6 1.1 -0.8
v -0.6 1.1 -1.3
v -0.6 1.6 1.2
v -0.6 1.6 0.7
v -0.6 1.6 -0.8
v -0.6 1.6 -1.3
v -0.4 0 0.5
v -0.4 0 0.3
v -0.4 0 -0.3
v -0.4 0 -0.5
v -0.4 0.2 0.5
v -0.4 0.2 0.3
v -0.4 0.2 -0.3
v -0.4 0.2 -0.5
v -0.4 0.8 0.7
v -0.4 0.8 -0.8
v -0.4 0.9 0.7
v -0.4 0.9 -0.8
v -0.0999999 0.2 0.5
v -0.0999999 0.2 0.3
v -0.0999999 0.2 -0.3
v -0.0999999 0.2 -0.5
v -0.0999999 0.8 0.5
v -0.0999999 0.8 0.3
v -0.0999999 0.8 -0.3
v -0.0999999 0.8 -0.5
v 0.1 0.2 0.5
v 0.1 0.2 0.3
v 0.1 0.2 -0.3
v 0.1 0.2 -0.5
v 0.1 0.8 0.5
v 0.1 0.8 0.3
v 0.1 0.8 -0.3
v 0.1 0.8 -0.5
v 0.2 0 0.7
v 0.2 0 0.0999999
v 0.2 0.2 0.7
v 0.2 0.2 0.0999999
v 0.3 0 -0.1
v 0.3 0 -0.7
v 0.3 0.2 -0.1
v 0.3 0.2 -0.7
v 0.4 0.8 0.7
v 0.4 0.8 -0.8
v 0.4 0.9 0.7
v 0.4 0.9 -0.8
v 0.4 3.5 0.3
v 0.4 3.5 -0.3
v 0.4 4 0.3
v 0.4 4 -0.3
v 0.6 1.8 0.7
v 0.6 1.8 -0.8
v 0.6 3.5 0.7
v 0.6 3.5 -0.8
v 0.8 1.1 1.2
v 0.8 1.1 0.7
v 0.8 1.1 -0.8
v 0.8 1.1 -1.3
v 0.8 1.6 1.2
v 0.8 1.6 0.7
v 0.8 1.6 -0.8
v 0.8 1.6 -1.3
v 1.7 0.9 0.7
v 1.7 0.9 0.5
v 1.7 0.9 -0.6
v 1.7 0.9 -0.8
v 1.7 1.8 0.7
v 1.7 1.8 0.5
v 1.7 1.8 -0.6
v 1.7 1.8 -0.8
v 2 0.9 0.5
v 2 0.9 -0.6
v 2 1.8 0.5
v 2 1.8 -0.6
v -0.6 1.1 1.2
v -0.6 1.6 1.2
v 0.8 1.1 1.2
v 0.8 1.6 1.2
v -1.3 0.9 0.7
v -1.3 3.5 0.7
v -0.9 0 0.7
v -0.9 0.2 0.7
v -0.7 2.7 0.7
v -0.7 3.1 0.7
v -0.6 1.1 0.7
v -0.6 1.6 0.7
v -0.4 0.8 0.7
v -0.4 0.9 0.7
v -0.3 2.7 0.7
v -0.3 3.1 0.7
v 0.2 0 0.7
v 0.2 0.2 0.7
v 0.4 0.8 0.7
v 0.4 0.9 0.7
v 0.6 1.8 0.7
v 0.6 3.5 0.7
v 0.8 1.1 0.7
v 0.8 1.6 0.7
v 1.7 0.9 0.7
v 1.7 1.8 0.7
v -0.0999999 0.2 0.5
v -0.0999999 0.8 0.5
v 0.1 0.2 0.5
v 0.1 0.8 0.5
v 1.7 0.9 0.5
v 1.7 1.8 0.5
v 2 0.9 0.5
v 2 1.8 0.5
v -2 2.2 0.3
v -2 2.7 0.3
v -1.7 1.8 0.3
v -1.7 2.2 0.3
v -1.3 1.8 0.3
v -1.3 2.2 0.3
v -1.3 2.7 0.3
v -0.9 0 0.3
v -0.9 0.2 0.3
v -0.9 3.5 0.3
v -0.9 4 0.3
v -0.4 0 0.3
v -0.4 0.2 0.3
v 0.4 3.5 0.3
v 0.4 4 0.3
v -0.9 0 -0.1
v -0.9 0.2 -0.1
v 0.3 0 -0.1
v 0.3 0.2 -0.1
v -0.0999999 0.2 -0.3
v -0.0999999 0.8 -0.3
v 0.1 0.2 -0.3
v 0.1 0.8 -0.3
v -0.9 0 -0.5
v -0.9 0.2 -0.5
v -0.4 0 -0.5
v -0.4 0.2 -0.5
v -0.9 0 0.5
v -0.9 0.2 0.5
v -0.4 0 0.5
v -0.4 0.2 0.5
v -0.0999999 0.2 0.3
v -0.0999999 0.8 0.3
v 0.1 0.2 0.3
v 0.1 0.8 0.3
v -0.9 0 0.0999999
v -0.9 0.2 0.0999999
v 0.2 0 0.0999999
v 0.2 0.2 0.0999999
v -2 2.2 -0.3
v -2 2.7 -0.3
v -1.7 1.8 -0.3
v -1.7 2.2 -0.3
v -1.3 1.8 -0.3
v -1.3 2.2 -0.3
v -1.3 2.7 -0.3
v -0.9 0 -0.3
v -0.9 0.2 -0.3
v -0.9 3.5 -0.3
v -0.9 4 -0.3
v -0.4 0 -0.3
v -0.4 0.2 -0.3
v 0.4 3.5 -0.3
v 0.4 4 -0.3
v -0.0999999 0.2 -0.5
v -0.0999999 0.8 -0.5
v 0.1 0.2 -0.5
v 0.1 0.8 -0.5
v 1.7 0.9 -0.6
v 1.7 1.8 -0.6
v 2 0.9 -0.6
v 2 1.8 -0.6
v -0.9 0 -0.7
v -0.9 0.2 -0.7
v 0.3 0 -0.7
v 0.3 0.2 -0.7
v -1.3 0.9 -0.8
v -1.3 3.5 -0.8
v -0.7 2.7 -0.8
v -0.7 3.1 -0.8
v -0.6 1.1 -0.8
v -0.6 1.6 -0.8
v -0.4 0.8 -0.8
v -0.4 0.9 -0.8
v -0.3 2.7 -0.8
v -0.3 3.1 -0.8
v 0.4 0.8 -0.8
v 0.4 0.9 -0.8
v 0.6 1.8 -0.8
v 0.6 3.5 -0.8
v 0.8 1.1 -0.8
v 0.8 1.6 -0.8
v 1.7 0.9 -0.8
v 1.7 1.8 -0.8
v -0.6 1.1 -1.3
v -0.6 1.6 -1.3
v 0.8 1.1 -1.3
v 0.8 1.6 -1.3
v -0.9 0 0.7
v 0.2 0 0.7
v -0.9 0 0.5
v -0.4 0 0.5
v -0.9 0 0.3
v -0.4 0 0.3
v -0.9 0 0.0999999
v 0.2 0 0.0999999
v -0.9 0 -0.1
v 0.3 0 -0.1
v -0.9 0 -0.3
v -0.4 0 -0.3
v -0.9 0 -0.5
v -0.4 0 -0.5
v -0.9 0 -0.7
v 0.3 0 -0.7
v -0.4 0.8 0.7
v 0.4 0.8 0.7
v -0.0999999 0.8 0.5
v 0.1 0.8 0.5
v -0.0999999 0.8 0.3
v 0.1 0.8 0.3
v -0.0999999 0.8 -0.3
v 0.1 0.8 -0.3
v -0.0999999 0.8 -0.5
v 0.1 0.8 -0.5
v -0.4 0.8 -0.8
v 0.4 0.8 -0.8
v -1.3 0.9 0.7
v -0.4 0.9 0.7
v 0.4 0.9 0.7
v 1.7 0.9 0.7
v 1.7 0.9 0.5
v 2 0.9 0.5
v 1.7 0.9 -0.6
v 2 0.9 -0.6
v -1.3 0.9 -0.8
v -0.4 0.9 -0.8
v 0.4 0.9 -0.8
v 1.7 0.9 -0.8
v -0.6 1.1 1.2
v 0.8 1.1 1.2
v -0.6 1.1 0.7
v 0.8 1.1 0.7
v -0.6 1.1 -0.8
v 0.8 1.1 -0.8
v -0.6 1.1 -1.3
v 0.8 1.1 -1.3
v -1.7 1.8 0.3
v -1.3 1.8 0.3
v -1.7 1.8 -0.3
v -1.3 1.8 -0.3
v -2 2.2 0.3
v -1.7 2.2 0.3
v -2 2.2 -0.3
v -1.7 2.2 -0.3
v -0.9 0.2 0.7
v 0.2 0.2 0.7
v -0.9 0.2 0.5
v -0.4 0.2 0.5
v -0.0999999 0.2 0.5
v 0.1 0.2 0.5
v -0.9 0.2 0.3
v -0.4 0.2 0.3
v -0.0999999 0.2 0.3
v 0.1 0.2 0.3
v -0.9 0.2 0.0999999
v 0.2 0.2 0.0999999
v -0.9 0.2 -0.1
v 0.3 0.2 -0.1
v -0.9 0.2 -0.3
v -0.4 0.2 -0.3
v -0.0999999 0.2 -0.3
v 0.1 0.2 -0.3
v -0.9 0.2 -0.5
v -0.4 0.2 -0.5
v -0.0999999 0.2 -0.5
v 0.1 0.2 -0.5
v -0.9 0.2 -0.7
v 0.3 0.2 -0.7
v -0.6 1.6 1.2
v 0.8 1.6 1.2
v -0.6 1.6 0.7
v 0.8 1.6 0.7
v -0.6 1.6 -0.8
v 0.8 1.6 -0.8
v -0.6 1.6 -1.3
v 0.8 1.6 -1.3
v 0.6 1.8 0.7
v 1.7 1.8 0.7
v 1.7 1.8 0.5
v 2 1.8 0.5
v 1.7 1.8 -0.6
v 2 1.8 -0.6
v 0.6 1.8 -0.8
v 1.7 1.8 -0.8
v -2 2.7 0.3
v -1.3 2.7 0.3
v -2 2.7 -0.3
v -1.3 2.7 -0.3
v -1.3 3.5 0.7
v 0.6 3.5 0.7
v -0.9 3.5 0.3
v 0.4 3.5 0.3
v -0.9 3.5 -0.3
v 0.4 3.5 -0.3
v -1.3 3.5 -0.8
v 0.6 3.5 -0.8
v -0.9 4 0.3
v 0.4 4 0.3
v -0.9 4 -0.3
v 0.4 4 -0.3

# faces
f 3/1/1 2/1/1 1/1/1
f 4/1/1 2/1/1 3/1/1
f 7/2/1 6/2/1 5/2/1
f 8/2/1 6/2/1 7/2/1
f 11/3/1 10/3/1 9/3/1
f 12/3/1 10/3/1 11/3/1
f 13/3/1 11/3/1 9/3/1
f 14/3/1 10/3/1 12/3/1
f 15/3/1 13/3/1 9/3/1
f 16/3/1 10/3/1 14/3/1
f 17/3/1 15/3/1 9/3/1
f 17/3/1 16/3/1 15/3/1
f 18/3/1 10/3/1 16/3/1
f 18/3/1 16/3/1 17/3/1
f 27/1/1 20/1/1 19/1/1
f 28/1/1 20/1/1 27/1/1
f 29/1/1 22/1/1 21/1/1
f 30/1/1 22/1/1 29/1/1
f 31/1/1 24/1/1 23/1/1
f 32/1/1 24/1/1 31/1/1
f 33/1/1 26/1/1 25/1/1
f 34/1/1 26/1/1 33/1/1
f 37/2/1 36/2/1 35/2/1
f 38/2/1 36/2/1 37/2/1
f 43/3/1 40/3/1 39/3/1
f 44/3/1 40/3/1 43/3/1
f 45/3/1 42/3/1 41/3/1
f 46/3/1 42/3/1 45/3/1
f 51/1/1 48/1/1 47/1/1
f 52/1/1 48/1/1 51/1/1
f 53/1/1 50/1/1 49/1/1
f 54/1/1 50/1/1 53/1/1
f 57/3/1 56/3/1 55/3/1
f 58/3/1 56/3/1 57/3/1
f 63/1/1 60/1/1 59/1/1
f 64/1/1 60/1/1 63/1/1
f 65/1/1 62/1/1 61/1/1
f 66/1/1 62/1/1 65/1/1
f 67/1/2 68/1/2 71/1/2
f 71/1/2 68/1/2 72/1/2
f 69/1/2 70/1/2 73/1/2
f 73/1/2 70/1/2 74/1/2
f 75/1/2 76/1/2 77/1/2
f 77/1/2 76/1/2 78/1/2
f 79/1/2 80/1/2 81/1/2
f 81/1/2 80/1/2 82/1/2
f 83/3/2 84/3/2 85/3/2
f 85/3/2 84/3/2 86/3/2
f 87/2/2 88/2/2 89/2/2
f 89/2/2 88/2/2 90/2/2
f 91/3/2 92/3/2 93/3/2
f 93/3/2 92/3/2 94/3/2
f 95/3/2 96/3/2 99/3/2
f 99/3/2 96/3/2 100/3/2
f 97/3/2 98/3/2 101/3/2
f 101/3/2 98/3/2 102/3/2
f 103/3/2 104/3/2 107/3/2
f 107/3/2 104/3/2 108/3/2
f 105/3/2 106/3/2 109/3/2
f 109/3/2 106/3/2 110/3/2
f 111/3/2 112/3/2 113/3/2
f 113/3/2 112/3/2 114/3/2
f 117/3/3 116/3/3 115/3/3
f 118/3/3 116/3/3 117/3/3
f 123/3/3 120/3/3 119/3/3
f 124/3/3 120/3/3 123/3/3
f 125/3/3 123/3/3 119/3/3
f 126/3/3 123/3/3 125/3/3
f 128/3/3 125/3/3 119/3/3
f 129/4/3 124/4/3 123/4/3
f 129/3/3 123/3/3 126/3/3
f 130/3/3 120/3/3 124/3/3
f 130/4/3 124/4/3 129/4/3
f 131/1/3 122/1/3 121/1/3
f 132/1/3 122/1/3 131/1/3
f 133/3/3 128/3/3 127/3/3
f 134/3/3 125/3/3 128/3/3
f 134/3/3 128/3/3 133/3/3
f 135/3/3 129/3/3 126/3/3
f 135/3/3 130/3/3 129/3/3
f 136/3/3 120/3/3 130/3/3
f 136/3/3 130/3/3 135/3/3
f 137/3/3 125/3/3 134/3/3
f 138/3/3 135/3/3 126/3/3
f 139/3/3 137/3/3 134/3/3
f 139/3/3 138/3/3 137/3/3
f 140/3/3 135/3/3 138/3/3
f 140/3/3 138/3/3 139/3/3
f 143/1/3 142/1/3 141/1/3
f 144/1/3 142/1/3 143/1/3
f 147/3/3 146/3/3 145/3/3
f 148/3/3 146/3/3 147/3/3
f 152/1/3 150/1/3 149/1/3
f 153/2/3 152/2/3 151/2/3
f 154/1/3 150/1/3 152/1/3
f 154/2/3 152/2/3 153/2/3
f 155/1/3 150/1/3 154/1/3
f 160/1/3 157/1/3 156/1/3
f 161/1/3 157/1/3 160/1/3
f 162/2/3 159/2/3 158/2/3
f 163/2/3 159/2/3 162/2/3
f 166/1/3 165/1/3 164/1/3
f 167/1/3 165/1/3 166/1/3
f 170/1/3 169/1/3 168/1/3
f 171/1/3 169/1/3 170/1/3
f 174/1/3 173/1/3 172/1/3
f 175/1/3 173/1/3 174/1/3
f 176/1/4 177/1/4 178/1/4
f 178/1/4 177/1/4 179/1/4
f 180/1/4 181/1/4 182/1/4
f 182/1/4 181/1/4 183/1/4
f 184/1/4 185/1/4 186/1/4
f 186/1/4 185/1/4 187/1/4
f 188/1/4 189/1/4 191/1/4
f 190/2/4 191/2/4 192/2/4
f 191/1/4 189/1/4 193/1/4
f 192/2/4 191/2/4 193/2/4
f 193/1/4 189/1/4 194/1/4
f 195/1/4 196/1/4 199/1/4
f 199/1/4 196/1/4 200/1/4
f 197/2/4 198/2/4 201/2/4
f 201/2/4 198/2/4 202/2/4
f 203/1/4 204/1/4 205/1/4
f 205/1/4 204/1/4 206/1/4
f 207/3/4 208/3/4 209/3/4
f 209/3/4 208/3/4 210/3/4
f 211/1/4 212/1/4 213/1/4
f 213/1/4 212/1/4 214/1/4
f 215/3/4 216/3/4 217/3/4
f 217/3/4 216/3/4 218/3/4
f 215/3/4 217/3/4 219/3/4
f 219/3/4 217/3/4 220/3/4
f 215/3/4 219/3/4 222/3/4
f 217/4/4 218/4/4 223/4/4
f 220/3/4 217/3/4 223/3/4
f 218/3/4 216/3/4 224/3/4
f 223/4/4 218/4/4 224/4/4
f 221/3/4 222/3/4 225/3/4
f 222/3/4 219/3/4 226/3/4
f 225/3/4 222/3/4 226/3/4
f 220/3/4 223/3/4 227/3/4
f 223/3/4 224/3/4 227/3/4
f 224/3/4 216/3/4 228/3/4
f 227/3/4 224/3/4 228/3/4
f 226/3/4 219/3/4 229/3/4
f 220/3/4 227/3/4 230/3/4
f 226/3/4 229/3/4 231/3/4
f 229/3/4 230/3/4 231/3/4
f 230/3/4 227/3/4 232/3/4
f 231/3/4 230/3/4 232/3/4
f 233/3/4 234/3/4 235/3/4
f 235/3/4 234/3/4 236/3/4
f 239/1/5 238/1/5 237/1/5
f 240/1/5 238/1/5 239/1/5
f 242/1/5 238/1/5 240/1/5
f 243/1/5 242/1/5 241/1/5
f 244/1/5 238/1/5 242/1/5
f 244/1/5 242/1/5 243/1/5
f 247/1/5 246/1/5 245/1/5
f 248/1/5 246/1/5 247/1/5
f 250/1/5 246/1/5 248/1/5
f 251/1/5 250/1/5 249/1/5
f 252/1/5 246/1/5 250/1/5
f 252/1/5 250/1/5 251/1/5
f 255/3/5 254/3/5 253/3/5
f 256/3/5 254/3/5 255/3/5
f 257/3/5 255/3/5 253/3/5
f 258/3/5 254/3/5 256/3/5
f 259/3/5 257/3/5 253/3/5
f 259/3/5 258/3/5 257/3/5
f 260/3/5 254/3/5 258/3/5
f 260/3/5 258/3/5 259/3/5
f 261/3/5 259/3/5 253/3/5
f 262/3/5 254/3/5 260/3/5
f 263/3/5 261/3/5 253/3/5
f 263/3/5 262/3/5 261/3/5
f 264/3/5 254/3/5 262/3/5
f 264/3/5 262/3/5 263/3/5
f 269/3/5 268/3/5 267/3/5
f 271/3/5 269/3/5 267/3/5
f 271/3/5 270/3/5 269/3/5
f 272/3/5 270/3/5 271/3/5
f 273/3/5 266/3/5 265/3/5
f 274/3/5 266/3/5 273/3/5
f 275/3/5 271/3/5 267/3/5
f 276/3/5 271/3/5 275/3/5
f 279/3/5 278/3/5 277/3/5
f 280/3/5 278/3/5 279/3/5
f 283/3/5 282/3/5 281/3/5
f 284/3/5 282/3/5 283/3/5
f 287/2/5 286/2/5 285/2/5
f 288/2/5 286/2/5 287/2/5
f 291/1/5 290/1/5 289/1/5
f 292/1/5 290/1/5 291/1/5
f 293/1/6 294/1/6 295/1/6
f 295/1/6 294/1/6 296/1/6
f 296/1/6 294/1/6 297/1/6
f 297/1/6 294/1/6 298/1/6
f 296/1/6 297/1/6 300/1/6
f 300/1/6 297/1/6 301/1/6
f 298/1/6 294/1/6 302/1/6
f 300/1/6 301/1/6 303/1/6
f 301/1/6 302/1/6 303/1/6
f 299/1/6 300/1/6 303/1/6
f 302/1/6 294/1/6 304/1/6
f 303/1/6 302/1/6 304/1/6
f 305/1/6 306/1/6 307/1/6
f 307/1/6 306/1/6 308/1/6
f 308/1/6 306/1/6 309/1/6
f 309/1/6 306/1/6 310/1/6
f 308/1/6 309/1/6 312/1/6
f 312/1/6 309/1/6 313/1/6
f 310/1/6 306/1/6 314/1/6
f 312/1/6 313/1/6 315/1/6
f 313/1/6 314/1/6 315/1/6
f 311/1/6 312/1/6 315/1/6
f 314/1/6 306/1/6 316/1/6
f 315/1/6 314/1/6 316/1/6
f 317/3/6 318/3/6 319/3/6
f 319/3/6 318/3/6 320/3/6
f 321/3/6 322/3/6 323/3/6
f 323/3/6 322/3/6 324/3/6
f 325/3/6 326/3/6 327/3/6
f 325/3/6 327/3/6 329/3/6
f 327/3/6 328/3/6 329/3/6
f 329/3/6 328/3/6 330/3/6
f 325/3/6 329/3/6 331/3/6
f 331/3/6 329/3/6 332/3/6
f 333/1/6 334/1/6 335/1/6
f 335/1/6 334/1/6 336/1/6
f 337/3/6 338/3/6 339/3/6
f 339/3/6 338/3/6 340/3/6
f 337/3/6 339/3/6 341/3/6
f 340/3/6 338/3/6 342/3/6
f 337/3/6 341/3/6 343/3/6
f 341/3/6 342/3/6 343/3/6
f 342/3/6 338/3/6 344/3/6
f 343/3/6 342/3/6 344/3/6
f 345/2/6 346/2/6 347/2/6
f 347/2/6 346/2/6 348/2/6
